<svg width="2349" height="639" viewBox="0 0 2349 639" fill="none" xmlns="http://www.w3.org/2000/svg">
<g clip-path="url(#clip0_2608_32)">
<path d="M319.158 638.315C495.424 638.315 638.315 495.424 638.315 319.158C638.315 142.892 495.424 0 319.158 0C142.892 0 0 142.892 0 319.158C0 495.424 142.892 638.315 319.158 638.315Z" fill="#8349FF"/>
<path d="M403.72 425.58C383.906 425.58 367.667 421.29 355.003 412.711C342.339 404.132 334.679 391.877 332.024 375.944L367.565 366.753C368.995 373.902 371.344 379.519 374.612 383.604C378.085 387.689 382.272 390.651 387.174 392.49C392.281 394.124 397.796 394.941 403.72 394.941C412.707 394.941 419.345 393.409 423.635 390.345C427.924 387.077 430.069 383.094 430.069 378.396C430.069 373.698 428.027 370.123 423.941 367.672C419.856 365.016 413.32 362.872 404.332 361.238L395.753 359.706C385.132 357.663 375.429 354.906 366.646 351.433C357.863 347.756 350.816 342.752 345.505 336.42C340.194 330.088 337.539 321.917 337.539 311.909C337.539 296.793 343.054 285.253 354.084 277.286C365.114 269.116 379.617 265.031 397.592 265.031C414.545 265.031 428.639 268.81 439.874 276.367C451.108 283.925 458.461 293.832 461.934 306.087L426.086 317.117C424.452 309.355 421.082 303.84 415.975 300.572C411.073 297.304 404.945 295.67 397.592 295.67C390.238 295.67 384.621 296.998 380.74 299.653C376.859 302.104 374.919 305.577 374.919 310.07C374.919 314.973 376.961 318.649 381.047 321.1C385.132 323.347 390.647 325.083 397.592 326.309L406.171 327.841C417.609 329.884 427.924 332.641 437.116 336.114C446.512 339.382 453.866 344.182 459.176 350.514C464.691 356.642 467.449 365.016 467.449 375.638C467.449 391.57 461.627 403.928 449.985 412.711C438.546 421.29 423.124 425.58 403.72 425.58ZM489.023 421.29V206.816H527.628V288.01H533.143C534.777 284.742 537.33 281.474 540.803 278.206C544.275 274.937 548.871 272.282 554.59 270.239C560.514 267.993 567.97 266.869 576.957 266.869C588.804 266.869 599.119 269.627 607.903 275.142C616.89 280.452 623.835 287.908 628.737 297.508C633.639 306.904 636.091 317.934 636.091 330.598V421.29H597.485V333.662C597.485 322.224 594.626 313.645 588.906 307.926C583.391 302.206 575.425 299.347 565.008 299.347C553.161 299.347 543.969 303.33 537.433 311.296C530.896 319.058 527.628 329.986 527.628 344.08V421.29H489.023ZM712.753 425.58C701.928 425.58 692.225 423.741 683.646 420.065C675.067 416.184 668.225 410.669 663.118 403.52C658.216 396.166 655.765 387.281 655.765 376.864C655.765 366.446 658.216 357.765 663.118 350.82C668.225 343.671 675.169 338.36 683.953 334.888C692.94 331.211 703.153 329.373 714.592 329.373H756.261V320.794C756.261 313.645 754.014 307.823 749.52 303.33C745.027 298.632 737.878 296.283 728.073 296.283C718.473 296.283 711.324 298.53 706.626 303.023C701.928 307.313 698.864 312.93 697.434 319.875L661.893 307.926C664.344 300.164 668.225 293.117 673.535 286.785C679.05 280.248 686.302 275.04 695.289 271.159C704.481 267.073 715.613 265.031 728.686 265.031C748.703 265.031 764.534 270.035 776.176 280.044C787.819 290.053 793.641 304.555 793.641 323.551V380.234C793.641 386.362 796.5 389.426 802.22 389.426H814.475V421.29H788.739C781.181 421.29 774.951 419.452 770.049 415.775C765.146 412.099 762.695 407.196 762.695 401.069V400.762H756.874C756.057 403.213 754.218 406.481 751.359 410.567C748.499 414.448 744.005 417.92 737.878 420.984C731.75 424.048 723.375 425.58 712.753 425.58ZM719.494 394.328C730.32 394.328 739.103 391.366 745.844 385.443C752.789 379.315 756.261 371.246 756.261 361.238V358.174H717.349C710.2 358.174 704.583 359.706 700.498 362.77C696.413 365.834 694.37 370.123 694.37 375.638C694.37 381.153 696.515 385.647 700.804 389.119C705.094 392.592 711.324 394.328 719.494 394.328ZM888.732 425.58C876.681 425.58 865.344 422.618 854.722 416.694C844.305 410.567 835.93 401.681 829.598 390.038C823.266 378.396 820.1 364.302 820.1 347.756V342.854C820.1 326.309 823.266 312.215 829.598 300.572C835.93 288.929 844.305 280.146 854.722 274.222C865.14 268.095 876.476 265.031 888.732 265.031C897.924 265.031 905.583 266.154 911.711 268.401C918.043 270.444 923.15 273.099 927.031 276.367C930.912 279.635 933.874 283.108 935.916 286.785H941.431V206.816H980.037V421.29H942.044V402.907H936.529C933.056 408.626 927.644 413.835 920.29 418.533C913.141 423.231 902.622 425.58 888.732 425.58ZM900.375 391.877C912.222 391.877 922.129 388.098 930.095 380.54C938.061 372.778 942.044 361.544 942.044 346.837V343.773C942.044 329.067 938.061 317.934 930.095 310.377C922.333 302.615 912.426 298.734 900.375 298.734C888.528 298.734 878.621 302.615 870.655 310.377C862.689 317.934 858.706 329.067 858.706 343.773V346.837C858.706 361.544 862.689 372.778 870.655 380.54C878.621 388.098 888.528 391.877 900.375 391.877ZM1081.97 425.58C1067.26 425.58 1053.89 422.516 1041.83 416.388C1029.99 410.26 1020.59 401.375 1013.65 389.732C1006.7 378.089 1003.23 363.995 1003.23 347.45V343.161C1003.23 326.615 1006.7 312.521 1013.65 300.879C1020.59 289.236 1029.99 280.35 1041.83 274.222C1053.89 268.095 1067.26 265.031 1081.97 265.031C1096.47 265.031 1108.93 267.584 1119.35 272.691C1129.77 277.797 1138.14 284.844 1144.48 293.832C1151.01 302.615 1155.3 312.624 1157.34 323.858L1119.96 331.824C1119.15 325.696 1117.31 320.181 1114.45 315.279C1111.59 310.377 1107.5 306.496 1102.19 303.636C1097.09 300.776 1090.65 299.347 1082.89 299.347C1075.13 299.347 1068.08 301.083 1061.75 304.555C1055.62 307.823 1050.72 312.828 1047.04 319.568C1043.57 326.105 1041.83 334.173 1041.83 343.773V346.837C1041.83 356.437 1043.57 364.608 1047.04 371.349C1050.72 377.885 1055.62 382.889 1061.75 386.362C1068.08 389.63 1075.13 391.264 1082.89 391.264C1094.53 391.264 1103.32 388.302 1109.24 382.379C1115.37 376.251 1119.25 368.285 1120.88 358.48L1158.26 367.365C1155.61 378.191 1151.01 388.098 1144.48 397.085C1138.14 405.869 1129.77 412.814 1119.35 417.92C1108.93 423.027 1096.47 425.58 1081.97 425.58ZM1177.85 421.29V269.32H1215.85V289.236H1221.36C1223.81 283.925 1228.41 278.92 1235.15 274.222C1241.89 269.32 1252.1 266.869 1265.79 266.869C1277.64 266.869 1287.95 269.627 1296.74 275.142C1305.72 280.452 1312.67 287.908 1317.57 297.508C1322.47 306.904 1324.92 317.934 1324.92 330.598V421.29H1286.32V333.662C1286.32 322.224 1283.46 313.645 1277.74 307.926C1272.22 302.206 1264.26 299.347 1253.84 299.347C1241.99 299.347 1232.8 303.33 1226.26 311.296C1219.73 319.058 1216.46 329.986 1216.46 344.08V421.29H1177.85ZM1417.52 425.58C1397.7 425.58 1381.47 421.29 1368.8 412.711C1356.14 404.132 1348.48 391.877 1345.82 375.944L1381.36 366.753C1382.79 373.902 1385.14 379.519 1388.41 383.604C1391.88 387.689 1396.07 390.651 1400.97 392.49C1406.08 394.124 1411.59 394.941 1417.52 394.941C1426.5 394.941 1433.14 393.409 1437.43 390.345C1441.72 387.077 1443.87 383.094 1443.87 378.396C1443.87 373.698 1441.82 370.123 1437.74 367.672C1433.65 365.016 1427.12 362.872 1418.13 361.238L1409.55 359.706C1398.93 357.663 1389.23 354.906 1380.44 351.433C1371.66 347.756 1364.61 342.752 1359.3 336.42C1353.99 330.088 1351.34 321.917 1351.34 311.909C1351.34 296.793 1356.85 285.253 1367.88 277.286C1378.91 269.116 1393.41 265.031 1411.39 265.031C1428.34 265.031 1442.44 268.81 1453.67 276.367C1464.91 283.925 1472.26 293.832 1475.73 306.087L1439.88 317.117C1438.25 309.355 1434.88 303.84 1429.77 300.572C1424.87 297.304 1418.74 295.67 1411.39 295.67C1404.04 295.67 1398.42 296.998 1394.54 299.653C1390.66 302.104 1388.72 305.577 1388.72 310.07C1388.72 314.973 1390.76 318.649 1394.84 321.1C1398.93 323.347 1404.44 325.083 1411.39 326.309L1419.97 327.841C1431.41 329.884 1441.72 332.641 1450.91 336.114C1460.31 339.382 1467.66 344.182 1472.97 350.514C1478.49 356.642 1481.25 365.016 1481.25 375.638C1481.25 391.57 1475.43 403.928 1463.78 412.711C1452.34 421.29 1436.92 425.58 1417.52 425.58ZM1502.82 482.569V269.32H1540.81V287.704H1546.33C1549.8 281.78 1555.21 276.571 1562.57 272.078C1569.92 267.38 1580.44 265.031 1594.13 265.031C1606.38 265.031 1617.72 268.095 1628.14 274.222C1638.55 280.146 1646.93 288.929 1653.26 300.572C1659.59 312.215 1662.76 326.309 1662.76 342.854V347.756C1662.76 364.302 1659.59 378.396 1653.26 390.038C1646.93 401.681 1638.55 410.567 1628.14 416.694C1617.72 422.618 1606.38 425.58 1594.13 425.58C1584.93 425.58 1577.17 424.456 1570.84 422.209C1564.71 420.167 1559.71 417.512 1555.83 414.243C1552.15 410.771 1549.19 407.298 1546.94 403.826H1541.43V482.569H1502.82ZM1582.48 391.877C1594.53 391.877 1604.44 388.098 1612.2 380.54C1620.17 372.778 1624.15 361.544 1624.15 346.837V343.773C1624.15 329.067 1620.17 317.934 1612.2 310.377C1604.24 302.615 1594.33 298.734 1582.48 298.734C1570.64 298.734 1560.73 302.615 1552.76 310.377C1544.8 317.934 1540.81 329.067 1540.81 343.773V346.837C1540.81 361.544 1544.8 372.778 1552.76 380.54C1560.73 388.098 1570.64 391.877 1582.48 391.877ZM1733.13 425.58C1722.3 425.58 1712.6 423.741 1704.02 420.065C1695.44 416.184 1688.6 410.669 1683.49 403.52C1678.59 396.166 1676.14 387.281 1676.14 376.864C1676.14 366.446 1678.59 357.765 1683.49 350.82C1688.6 343.671 1695.54 338.36 1704.33 334.888C1713.31 331.211 1723.53 329.373 1734.96 329.373H1776.65V320.794C1776.65 313.645 1774.4 307.823 1769.89 303.33C1765.41 298.632 1758.26 296.283 1748.46 296.283C1738.86 296.283 1731.7 298.53 1727 303.023C1722.3 307.313 1719.24 312.93 1717.81 319.875L1682.27 307.926C1684.72 300.164 1688.6 293.117 1693.91 286.785C1699.42 280.248 1706.67 275.04 1715.66 271.159C1724.85 267.073 1736 265.031 1749.07 265.031C1769.09 265.031 1784.92 270.035 1796.56 280.044C1808.2 290.053 1814.03 304.555 1814.03 323.551V380.234C1814.03 386.362 1816.89 389.426 1822.61 389.426H1834.86V421.29H1809.12C1801.57 421.29 1795.34 419.452 1790.43 415.775C1785.53 412.099 1783.08 407.196 1783.08 401.069V400.762H1777.26C1776.44 403.213 1774.6 406.481 1771.74 410.567C1768.88 414.448 1764.39 417.92 1758.26 420.984C1752.14 424.048 1743.76 425.58 1733.13 425.58ZM1739.87 394.328C1750.71 394.328 1759.49 391.366 1766.23 385.443C1773.17 379.315 1776.65 371.246 1776.65 361.238V358.174H1737.72C1730.57 358.174 1724.96 359.706 1720.88 362.77C1716.79 365.834 1714.74 370.123 1714.74 375.638C1714.74 381.153 1716.89 385.647 1721.18 389.119C1725.47 392.592 1731.7 394.328 1739.87 394.328ZM1919.22 425.58C1904.51 425.58 1891.13 422.516 1879.08 416.388C1867.24 410.26 1857.84 401.375 1850.9 389.732C1843.95 378.089 1840.48 363.995 1840.48 347.45V343.161C1840.48 326.615 1843.95 312.521 1850.9 300.879C1857.84 289.236 1867.24 280.35 1879.08 274.222C1891.13 268.095 1904.51 265.031 1919.22 265.031C1933.72 265.031 1946.18 267.584 1956.6 272.691C1967.02 277.797 1975.39 284.844 1981.72 293.832C1988.26 302.615 1992.55 312.624 1994.59 323.858L1957.21 331.824C1956.4 325.696 1954.56 320.181 1951.7 315.279C1948.84 310.377 1944.75 306.496 1939.44 303.636C1934.34 300.776 1927.9 299.347 1920.14 299.347C1912.38 299.347 1905.33 301.083 1899 304.555C1892.87 307.823 1887.97 312.828 1884.29 319.568C1880.82 326.105 1879.08 334.173 1879.08 343.773V346.837C1879.08 356.437 1880.82 364.608 1884.29 371.349C1887.97 377.885 1892.87 382.889 1899 386.362C1905.33 389.63 1912.38 391.264 1920.14 391.264C1931.78 391.264 1940.57 388.302 1946.49 382.379C1952.62 376.251 1956.5 368.285 1958.13 358.48L1995.51 367.365C1992.86 378.191 1988.26 388.098 1981.72 397.085C1975.39 405.869 1967.02 412.814 1956.6 417.92C1946.18 423.027 1933.72 425.58 1919.22 425.58ZM2084.35 425.58C2069.24 425.58 2055.86 422.414 2044.22 416.082C2032.78 409.545 2023.79 400.456 2017.25 388.813C2010.92 376.966 2007.75 363.076 2007.75 347.144V343.467C2007.75 327.535 2010.92 313.747 2017.25 302.104C2023.59 290.257 2032.47 281.167 2043.91 274.835C2055.35 268.299 2068.62 265.031 2083.74 265.031C2098.65 265.031 2111.62 268.401 2122.65 275.142C2133.68 281.678 2142.26 290.87 2148.39 302.717C2154.52 314.36 2157.58 327.943 2157.58 343.467V356.642H2046.97C2047.38 367.059 2051.26 375.536 2058.62 382.072C2065.97 388.609 2074.96 391.877 2085.58 391.877C2096.4 391.877 2104.37 389.528 2109.48 384.83C2114.58 380.132 2118.46 374.923 2121.12 369.204L2152.68 385.749C2149.82 391.06 2145.63 396.881 2140.12 403.213C2134.81 409.341 2127.66 414.652 2118.67 419.146C2109.68 423.435 2098.24 425.58 2084.35 425.58ZM2047.28 327.841H2118.36C2117.55 319.058 2113.97 312.011 2107.64 306.7C2101.51 301.389 2093.44 298.734 2083.43 298.734C2073.02 298.734 2064.74 301.389 2058.62 306.7C2052.49 312.011 2048.71 319.058 2047.28 327.841ZM2202.1 425.58C2193.93 425.58 2186.98 422.924 2181.26 417.614C2175.75 412.099 2172.99 405.052 2172.99 396.473C2172.99 387.894 2175.75 380.949 2181.26 375.638C2186.98 370.123 2193.93 367.365 2202.1 367.365C2210.47 367.365 2217.42 370.123 2222.93 375.638C2228.45 380.949 2231.2 387.894 2231.2 396.473C2231.2 405.052 2228.45 412.099 2222.93 417.614C2217.42 422.924 2210.47 425.58 2202.1 425.58Z" fill="white"/>
</g>
<defs>
<clipPath id="clip0_2608_32">
<rect width="2349" height="638.315" fill="white"/>
</clipPath>
</defs>
</svg>
